<svg width="133.5" height="28" viewBox="0 0 534 112" fill="none" xmlns="http://www.w3.org/2000/svg">
<path d="M35.5043 84H76.1181L59.2889 67.1707H48.6002C46.5383 67.1707 44.8669 65.4993 44.8669 63.4374V52.7487L28.0376 35.9195V76.5333C28.0376 80.6571 31.3805 84 35.5043 84Z" fill="white"/>
<path opacity="0.5" d="M76.5709 28H35.957L52.7863 44.8293H63.475C65.5369 44.8293 67.2083 46.5007 67.2083 48.5626V59.2513L84.0376 76.0805V35.4667C84.0376 31.3429 80.6947 28 76.5709 28Z" fill="white"/>
<path d="M501.112 41.8388H483.24V78.4578H475.13V41.8388H457.226V33.729H501.112V41.8388Z" fill="white"/>
<path d="M439.771 60.1795H414.162V52.0073H439.771V60.1795ZM443.42 78.4578H414.162C413.039 78.4578 411.813 78.2603 410.482 77.8652C409.151 77.4701 407.914 76.8254 406.77 75.9313C405.647 75.0163 404.701 73.8414 403.931 72.4066C403.183 70.951 402.809 69.1731 402.809 67.0729V37.8151C402.809 37.2537 402.913 36.7234 403.121 36.2243C403.328 35.7253 403.609 35.2886 403.963 34.9143C404.337 34.54 404.774 34.2489 405.273 34.0409C405.772 33.833 406.312 33.729 406.895 33.729H443.42V41.8388H410.918V67.0729C410.918 68.1334 411.199 68.9444 411.761 69.5058C412.322 70.0672 413.143 70.348 414.225 70.348H443.42V78.4578Z" fill="white"/>
<path d="M387.885 74.482C387.885 75.0485 387.773 75.5746 387.551 76.0602C387.348 76.5458 387.065 76.9707 386.701 77.3349C386.357 77.6788 385.942 77.952 385.457 78.1543C384.971 78.3566 384.455 78.4578 383.909 78.4578C383.423 78.4578 382.927 78.3667 382.422 78.1846C381.936 78.0026 381.501 77.7092 381.117 77.3045L352.284 47.1977V77.8508H344.394V37.6982C344.394 36.8889 344.616 36.1605 345.061 35.513C345.527 34.8453 346.113 34.3496 346.822 34.0259C347.57 33.7224 348.339 33.6516 349.128 33.8135C349.917 33.9551 350.595 34.3193 351.162 34.906L379.994 64.9826V34.3294H387.885V74.482Z" fill="white"/>
<path d="M328.62 77.8511H320.672V51.9448L306.687 76.5467C306.343 77.1736 305.858 77.6489 305.231 77.9724C304.624 78.296 303.967 78.4578 303.259 78.4578C302.572 78.4578 301.925 78.296 301.318 77.9724C300.731 77.6489 300.266 77.1736 299.922 76.5467L285.877 51.9448V77.8511H277.99V37.7175C277.99 36.8075 278.253 35.9985 278.779 35.2907C279.325 34.5829 280.033 34.1076 280.902 33.865C281.327 33.7638 281.752 33.7335 282.176 33.7739C282.601 33.7942 283.005 33.8852 283.39 34.047C283.794 34.1885 284.158 34.4009 284.482 34.684C284.805 34.9469 285.078 35.2705 285.301 35.6547L303.259 66.8697L321.218 35.6547C321.683 34.8862 322.32 34.3402 323.129 34.0166C323.958 33.6931 324.818 33.6425 325.707 33.865C326.557 34.1076 327.254 34.5829 327.8 35.2907C328.347 35.9985 328.62 36.8075 328.62 37.7175V77.8511Z" fill="white"/>
<path d="M264.004 78.4578H227.011C226.428 78.4578 225.888 78.3538 225.389 78.1459C224.89 77.9379 224.453 77.6572 224.079 77.3037C223.725 76.9294 223.444 76.4927 223.236 75.9937C223.029 75.4946 222.925 74.9539 222.925 74.3717V33.729H231.034V70.348H264.004V78.4578Z" fill="white"/>
<path d="M208.356 78.4578H200.247V67.4783H171.738V78.4578H163.628V56.0934C163.628 52.8287 164.189 49.8239 165.312 47.079C166.435 44.3342 167.995 41.974 169.991 39.9985C171.987 38.0231 174.347 36.4843 177.071 35.3822C179.795 34.2801 182.769 33.729 185.992 33.729H204.27C204.832 33.729 205.362 33.833 205.861 34.0409C206.36 34.2489 206.797 34.54 207.171 34.9143C207.546 35.2886 207.837 35.7253 208.045 36.2243C208.253 36.7234 208.356 37.2537 208.356 37.8151V78.4578ZM171.738 59.3685H200.247V41.8388H185.992C185.743 41.8388 185.212 41.8804 184.401 41.9636C183.611 42.026 182.686 42.2027 181.625 42.4939C180.586 42.785 179.483 43.2321 178.319 43.8351C177.154 44.4381 176.084 45.2699 175.106 46.3304C174.129 47.3909 173.318 48.7218 172.673 50.323C172.049 51.9033 171.738 53.8268 171.738 56.0934V59.3685Z" fill="white"/>
<path d="M154.104 52.4442C154.104 54.2949 153.875 55.9481 153.418 57.4037C152.96 58.8593 152.336 60.1486 151.546 61.2715C150.777 62.3736 149.883 63.3197 148.864 64.1099C147.845 64.9001 146.774 65.5447 145.651 66.0438C144.549 66.5428 143.426 66.9067 142.282 67.1355C141.159 67.3642 140.099 67.4786 139.101 67.4786H120.76V59.3688H139.101C140.14 59.2856 141.076 59.0776 141.908 58.7449C142.76 58.3914 143.488 57.9236 144.091 57.3413C144.694 56.7591 145.162 56.0625 145.495 55.2515C145.828 54.4197 145.994 53.4839 145.994 52.4442V48.7636C145.89 47.7447 145.672 46.8089 145.339 45.9564C145.006 45.1038 144.549 44.376 143.967 43.773C143.405 43.1699 142.719 42.702 141.908 42.3693C141.097 42.0158 140.161 41.8391 139.101 41.8391H120.822C119.741 41.8391 118.92 42.1198 118.358 42.6812C117.797 43.2427 117.516 44.0537 117.516 45.1142V78.458H109.406V45.1142C109.406 43.0348 109.781 41.2672 110.529 39.8116C111.299 38.356 112.245 37.1811 113.368 36.287C114.511 35.3928 115.749 34.7482 117.079 34.3531C118.41 33.9372 119.637 33.7292 120.76 33.7292H139.101C140.931 33.7292 142.573 33.9684 144.029 34.4467C145.485 34.9041 146.763 35.528 147.866 36.3182C148.988 37.0875 149.935 37.9817 150.704 39.0006C151.494 40.0196 152.139 41.0905 152.638 42.2134C153.158 43.3155 153.532 44.4384 153.761 45.5821C153.989 46.705 154.104 47.7655 154.104 48.7636V52.4442Z" fill="white"/>
</svg>
